<svg width="41" height="41" viewBox="0 0 41 41" fill="none" xmlns="http://www.w3.org/2000/svg">
<path d="M17.4639 16.3813C17.8195 16.382 18.1607 16.5253 18.4102 16.7788L19.1113 17.4917C19.6268 18.0154 19.6203 18.8579 19.0967 19.3735C18.6703 19.7933 18.0337 19.8658 17.5332 19.5962C17.4757 19.7647 17.5126 19.964 17.6406 20.0942L20.9434 23.4556L21.0098 23.5112C21.0802 23.559 21.1633 23.5843 21.251 23.5845C21.2871 23.5845 21.3225 23.5782 21.3564 23.5698C20.9109 23.0436 20.9391 22.2559 21.4385 21.7642C21.962 21.2484 22.8047 21.2543 23.3203 21.7778L24.2168 22.689C24.7277 23.2082 24.7257 24.0418 24.2129 24.5591L23.4482 25.3306C22.8632 25.9207 22.0828 26.2456 21.252 26.2456H21.2451C20.4115 26.2437 19.6291 25.9153 19.0449 25.3208L15.7422 21.9595C14.544 20.74 14.5484 18.7615 15.752 17.5474L16.5166 16.7759C16.7664 16.5239 17.1062 16.3815 17.4609 16.3813H17.4639Z" fill="#FAC800"/>
<path d="M17.4639 16.3813C17.8195 16.382 18.1607 16.5253 18.4102 16.7788L19.1113 17.4917C19.6268 18.0154 19.6203 18.8579 19.0967 19.3735C18.6703 19.7933 18.0337 19.8658 17.5332 19.5962C17.4757 19.7647 17.5126 19.964 17.6406 20.0942L20.9434 23.4556L21.0098 23.5112C21.0802 23.559 21.1633 23.5843 21.251 23.5845C21.2871 23.5845 21.3225 23.5782 21.3564 23.5698C20.9109 23.0436 20.9391 22.2559 21.4385 21.7642C21.962 21.2484 22.8047 21.2543 23.3203 21.7778L24.2168 22.689C24.7277 23.2082 24.7257 24.0418 24.2129 24.5591L23.4482 25.3306C22.8632 25.9207 22.0828 26.2456 21.252 26.2456H21.2451C20.4115 26.2437 19.6291 25.9153 19.0449 25.3208L15.7422 21.9595C14.544 20.74 14.5484 18.7615 15.752 17.5474L16.5166 16.7759C16.7664 16.5239 17.1062 16.3815 17.4609 16.3813H17.4639Z" fill="black" fill-opacity="0.2"/>
<path d="M17.4639 16.3813C17.8195 16.382 18.1607 16.5253 18.4102 16.7788L19.1113 17.4917C19.6268 18.0154 19.6203 18.8579 19.0967 19.3735C18.6703 19.7933 18.0337 19.8658 17.5332 19.5962C17.4757 19.7647 17.5126 19.964 17.6406 20.0942L20.9434 23.4556L21.0098 23.5112C21.0802 23.559 21.1633 23.5843 21.251 23.5845C21.2871 23.5845 21.3225 23.5782 21.3564 23.5698C20.9109 23.0436 20.9391 22.2559 21.4385 21.7642C21.962 21.2484 22.8047 21.2543 23.3203 21.7778L24.2168 22.689C24.7277 23.2082 24.7257 24.0418 24.2129 24.5591L23.4482 25.3306C22.8632 25.9207 22.0828 26.2456 21.252 26.2456H21.2451C20.4115 26.2437 19.6291 25.9153 19.0449 25.3208L15.7422 21.9595C14.544 20.74 14.5484 18.7615 15.752 17.5474L16.5166 16.7759C16.7664 16.5239 17.1062 16.3815 17.4609 16.3813H17.4639Z" stroke="#FAC800" stroke-width="0.387944"/>
<path d="M17.4639 16.3813C17.8195 16.382 18.1607 16.5253 18.4102 16.7788L19.1113 17.4917C19.6268 18.0154 19.6203 18.8579 19.0967 19.3735C18.6703 19.7933 18.0337 19.8658 17.5332 19.5962C17.4757 19.7647 17.5126 19.964 17.6406 20.0942L20.9434 23.4556L21.0098 23.5112C21.0802 23.559 21.1633 23.5843 21.251 23.5845C21.2871 23.5845 21.3225 23.5782 21.3564 23.5698C20.9109 23.0436 20.9391 22.2559 21.4385 21.7642C21.962 21.2484 22.8047 21.2543 23.3203 21.7778L24.2168 22.689C24.7277 23.2082 24.7257 24.0418 24.2129 24.5591L23.4482 25.3306C22.8632 25.9207 22.0828 26.2456 21.252 26.2456H21.2451C20.4115 26.2437 19.6291 25.9153 19.0449 25.3208L15.7422 21.9595C14.544 20.74 14.5484 18.7615 15.752 17.5474L16.5166 16.7759C16.7664 16.5239 17.1062 16.3815 17.4609 16.3813H17.4639Z" stroke="black" stroke-opacity="0.2" stroke-width="0.387944"/>
<path d="M26.9893 0.842773C30.5919 0.563595 34.1238 1.87145 36.6777 4.42969C39.2306 6.98718 40.5352 10.5239 40.2568 14.1318C40.2028 14.8296 39.62 15.3593 38.9316 15.3594C38.8973 15.3594 38.8627 15.3581 38.8281 15.3555C38.0954 15.299 37.5469 14.6595 37.6035 13.9268C37.822 11.0934 36.7977 8.31787 34.7939 6.31055C32.7906 4.30353 30.0205 3.27767 27.1943 3.49609C26.4625 3.55262 25.8224 3.00512 25.7656 2.27246C25.7089 1.53978 26.2565 0.899546 26.9893 0.842773Z" fill="#FAC800"/>
<path d="M26.9893 0.842773C30.5919 0.563595 34.1238 1.87145 36.6777 4.42969C39.2306 6.98718 40.5352 10.5239 40.2568 14.1318C40.2028 14.8296 39.62 15.3593 38.9316 15.3594C38.8973 15.3594 38.8627 15.3581 38.8281 15.3555C38.0954 15.299 37.5469 14.6595 37.6035 13.9268C37.822 11.0934 36.7977 8.31787 34.7939 6.31055C32.7906 4.30353 30.0205 3.27767 27.1943 3.49609C26.4625 3.55262 25.8224 3.00512 25.7656 2.27246C25.7089 1.53978 26.2565 0.899546 26.9893 0.842773Z" fill="black" fill-opacity="0.2"/>
<path d="M26.9893 0.842773C30.5919 0.563595 34.1238 1.87145 36.6777 4.42969C39.2306 6.98718 40.5352 10.5239 40.2568 14.1318C40.2028 14.8296 39.62 15.3593 38.9316 15.3594C38.8973 15.3594 38.8627 15.3581 38.8281 15.3555C38.0954 15.299 37.5469 14.6595 37.6035 13.9268C37.822 11.0934 36.7977 8.31787 34.7939 6.31055C32.7906 4.30353 30.0205 3.27767 27.1943 3.49609C26.4625 3.55262 25.8224 3.00512 25.7656 2.27246C25.7089 1.53978 26.2565 0.899546 26.9893 0.842773Z" stroke="#FAC800" stroke-width="0.387944"/>
<path d="M26.9893 0.842773C30.5919 0.563595 34.1238 1.87145 36.6777 4.42969C39.2306 6.98718 40.5352 10.5239 40.2568 14.1318C40.2028 14.8296 39.62 15.3593 38.9316 15.3594C38.8973 15.3594 38.8627 15.3581 38.8281 15.3555C38.0954 15.299 37.5469 14.6595 37.6035 13.9268C37.822 11.0934 36.7977 8.31787 34.7939 6.31055C32.7906 4.30353 30.0205 3.27767 27.1943 3.49609C26.4625 3.55262 25.8224 3.00512 25.7656 2.27246C25.7089 1.53978 26.2565 0.899546 26.9893 0.842773Z" stroke="black" stroke-opacity="0.2" stroke-width="0.387944"/>
<path d="M27.5459 5.23193C29.7838 5.11925 31.9771 5.96498 33.5615 7.55225C35.1449 9.13872 35.9884 11.3337 35.876 13.5747C35.8401 14.2859 35.2521 14.8384 34.5479 14.8384C34.5252 14.8384 34.5028 14.8376 34.4805 14.8364C33.7465 14.7996 33.181 14.1749 33.2178 13.4409C33.2927 11.9488 32.7312 10.4876 31.6777 9.43213C30.6245 8.37708 29.1658 7.81349 27.6787 7.88818L27.6797 7.88916C26.9436 7.92715 26.3202 7.36103 26.2832 6.62744C26.2463 5.89342 26.8119 5.26893 27.5459 5.23193Z" fill="#FAC800"/>
<path d="M27.5459 5.23193C29.7838 5.11925 31.9771 5.96498 33.5615 7.55225C35.1449 9.13872 35.9884 11.3337 35.876 13.5747C35.8401 14.2859 35.2521 14.8384 34.5479 14.8384C34.5252 14.8384 34.5028 14.8376 34.4805 14.8364C33.7465 14.7996 33.181 14.1749 33.2178 13.4409C33.2927 11.9488 32.7312 10.4876 31.6777 9.43213C30.6245 8.37708 29.1658 7.81349 27.6787 7.88818L27.6797 7.88916C26.9436 7.92715 26.3202 7.36103 26.2832 6.62744C26.2463 5.89342 26.8119 5.26893 27.5459 5.23193Z" fill="black" fill-opacity="0.2"/>
<path d="M27.5459 5.23193C29.7838 5.11925 31.9771 5.96498 33.5615 7.55225C35.1449 9.13872 35.9884 11.3337 35.876 13.5747C35.8401 14.2859 35.2521 14.8384 34.5479 14.8384C34.5252 14.8384 34.5028 14.8376 34.4805 14.8364C33.7465 14.7996 33.181 14.1749 33.2178 13.4409C33.2927 11.9488 32.7312 10.4876 31.6777 9.43213C30.6245 8.37708 29.1658 7.81349 27.6787 7.88818L27.6797 7.88916C26.9436 7.92715 26.3202 7.36103 26.2832 6.62744C26.2463 5.89342 26.8119 5.26893 27.5459 5.23193Z" stroke="#FAC800" stroke-width="0.387944"/>
<path d="M27.5459 5.23193C29.7838 5.11925 31.9771 5.96498 33.5615 7.55225C35.1449 9.13872 35.9884 11.3337 35.876 13.5747C35.8401 14.2859 35.2521 14.8384 34.5479 14.8384C34.5252 14.8384 34.5028 14.8376 34.4805 14.8364C33.7465 14.7996 33.181 14.1749 33.2178 13.4409C33.2927 11.9488 32.7312 10.4876 31.6777 9.43213C30.6245 8.37708 29.1658 7.81349 27.6787 7.88818L27.6797 7.88916C26.9436 7.92715 26.3202 7.36103 26.2832 6.62744C26.2463 5.89342 26.8119 5.26893 27.5459 5.23193Z" stroke="black" stroke-opacity="0.2" stroke-width="0.387944"/>
<path d="M28.1494 9.18701C29.1374 9.2372 30.0671 9.65124 30.7666 10.3521C31.466 11.0528 31.8786 11.9831 31.9277 12.9712C31.9619 13.6592 31.4673 14.2515 30.8008 14.353L30.665 14.3667C30.6423 14.3679 30.6197 14.3677 30.5977 14.3677C29.8929 14.3676 29.3049 13.8146 29.2695 13.103C29.2531 12.7748 29.1158 12.4655 28.8828 12.2319C28.6502 11.999 28.342 11.8619 28.0146 11.8452C27.2806 11.808 26.7157 11.1827 26.7529 10.4487C26.7901 9.71482 27.4162 9.14955 28.1494 9.18701Z" fill="#FAC800"/>
<path d="M28.1494 9.18701C29.1374 9.2372 30.0671 9.65124 30.7666 10.3521C31.466 11.0528 31.8786 11.9831 31.9277 12.9712C31.9619 13.6592 31.4673 14.2515 30.8008 14.353L30.665 14.3667C30.6423 14.3679 30.6197 14.3677 30.5977 14.3677C29.8929 14.3676 29.3049 13.8146 29.2695 13.103C29.2531 12.7748 29.1158 12.4655 28.8828 12.2319C28.6502 11.999 28.342 11.8619 28.0146 11.8452C27.2806 11.808 26.7157 11.1827 26.7529 10.4487C26.7901 9.71482 27.4162 9.14955 28.1494 9.18701Z" fill="black" fill-opacity="0.2"/>
<path d="M28.1494 9.18701C29.1374 9.2372 30.0671 9.65124 30.7666 10.3521C31.466 11.0528 31.8786 11.9831 31.9277 12.9712C31.9619 13.6592 31.4673 14.2515 30.8008 14.353L30.665 14.3667C30.6423 14.3679 30.6197 14.3677 30.5977 14.3677C29.8929 14.3676 29.3049 13.8146 29.2695 13.103C29.2531 12.7748 29.1158 12.4655 28.8828 12.2319C28.6502 11.999 28.342 11.8619 28.0146 11.8452C27.2806 11.808 26.7157 11.1827 26.7529 10.4487C26.7901 9.71482 27.4162 9.14955 28.1494 9.18701Z" stroke="#FAC800" stroke-width="0.387944"/>
<path d="M28.1494 9.18701C29.1374 9.2372 30.0671 9.65124 30.7666 10.3521C31.466 11.0528 31.8786 11.9831 31.9277 12.9712C31.9619 13.6592 31.4673 14.2515 30.8008 14.353L30.665 14.3667C30.6423 14.3679 30.6197 14.3677 30.5977 14.3677C29.8929 14.3676 29.3049 13.8146 29.2695 13.103C29.2531 12.7748 29.1158 12.4655 28.8828 12.2319C28.6502 11.999 28.342 11.8619 28.0146 11.8452C27.2806 11.808 26.7157 11.1827 26.7529 10.4487C26.7901 9.71482 27.4162 9.14955 28.1494 9.18701Z" stroke="black" stroke-opacity="0.2" stroke-width="0.387944"/>
<path d="M19.7227 11.2563C25.2072 11.2566 29.6648 15.77 29.665 21.313C29.665 21.5445 29.6541 21.7742 29.6387 22.0015C31.3679 22.4109 32.9396 23.3307 34.127 24.6479C35.265 25.9106 35.985 27.4678 36.2109 29.1187C37.175 29.3991 38.0521 29.9253 38.75 30.6577C39.731 31.6873 40.2724 33.0306 40.2725 34.439C40.2725 37.5064 37.7156 39.9937 34.583 39.9937H6.79492C3.66228 39.9936 1.10547 37.5064 1.10547 34.439C1.10556 31.3716 3.66234 28.8843 6.79492 28.8843H8.42383C8.67355 27.3558 9.34487 25.939 10.3809 24.7554C9.99257 23.6808 9.7793 22.5214 9.7793 21.313C9.7795 15.7699 14.2379 11.2563 19.7227 11.2563ZM29.1133 24.6108C27.761 28.5394 24.0652 31.3694 19.7227 31.3696C16.4766 31.3696 13.5896 29.7888 11.7744 27.3501C11.2581 28.2136 10.9784 29.193 10.9746 30.2202C10.9719 30.9532 10.3766 31.5464 9.64355 31.5464H6.79492C5.11772 31.5464 3.76767 32.8517 3.76758 34.439C3.76758 36.0263 5.11766 37.3325 6.79492 37.3325H34.583C36.2602 37.3325 37.6113 36.0263 37.6113 34.439C37.6112 32.9589 36.4035 31.6866 34.8486 31.5581C34.1593 31.501 33.629 30.9255 33.6279 30.2339C33.6262 28.8366 33.1016 27.4857 32.1504 26.4302C31.3463 25.5381 30.2854 24.9062 29.1133 24.6108ZM19.7227 13.9185C15.7105 13.9185 12.4406 17.2328 12.4404 21.313C12.4404 25.3933 15.7105 28.7085 19.7227 28.7085C23.7346 28.7082 27.0039 25.3932 27.0039 21.313C27.0037 17.233 23.7346 13.9187 19.7227 13.9185Z" fill="#FAC800"/>
<path d="M19.7227 11.2563C25.2072 11.2566 29.6648 15.77 29.665 21.313C29.665 21.5445 29.6541 21.7742 29.6387 22.0015C31.3679 22.4109 32.9396 23.3307 34.127 24.6479C35.265 25.9106 35.985 27.4678 36.2109 29.1187C37.175 29.3991 38.0521 29.9253 38.75 30.6577C39.731 31.6873 40.2724 33.0306 40.2725 34.439C40.2725 37.5064 37.7156 39.9937 34.583 39.9937H6.79492C3.66228 39.9936 1.10547 37.5064 1.10547 34.439C1.10556 31.3716 3.66234 28.8843 6.79492 28.8843H8.42383C8.67355 27.3558 9.34487 25.939 10.3809 24.7554C9.99257 23.6808 9.7793 22.5214 9.7793 21.313C9.7795 15.7699 14.2379 11.2563 19.7227 11.2563ZM29.1133 24.6108C27.761 28.5394 24.0652 31.3694 19.7227 31.3696C16.4766 31.3696 13.5896 29.7888 11.7744 27.3501C11.2581 28.2136 10.9784 29.193 10.9746 30.2202C10.9719 30.9532 10.3766 31.5464 9.64355 31.5464H6.79492C5.11772 31.5464 3.76767 32.8517 3.76758 34.439C3.76758 36.0263 5.11766 37.3325 6.79492 37.3325H34.583C36.2602 37.3325 37.6113 36.0263 37.6113 34.439C37.6112 32.9589 36.4035 31.6866 34.8486 31.5581C34.1593 31.501 33.629 30.9255 33.6279 30.2339C33.6262 28.8366 33.1016 27.4857 32.1504 26.4302C31.3463 25.5381 30.2854 24.9062 29.1133 24.6108ZM19.7227 13.9185C15.7105 13.9185 12.4406 17.2328 12.4404 21.313C12.4404 25.3933 15.7105 28.7085 19.7227 28.7085C23.7346 28.7082 27.0039 25.3932 27.0039 21.313C27.0037 17.233 23.7346 13.9187 19.7227 13.9185Z" fill="black" fill-opacity="0.2"/>
<path d="M19.7227 11.2563C25.2072 11.2566 29.6648 15.77 29.665 21.313C29.665 21.5445 29.6541 21.7742 29.6387 22.0015C31.3679 22.4109 32.9396 23.3307 34.127 24.6479C35.265 25.9106 35.985 27.4678 36.2109 29.1187C37.175 29.3991 38.0521 29.9253 38.75 30.6577C39.731 31.6873 40.2724 33.0306 40.2725 34.439C40.2725 37.5064 37.7156 39.9937 34.583 39.9937H6.79492C3.66228 39.9936 1.10547 37.5064 1.10547 34.439C1.10556 31.3716 3.66234 28.8843 6.79492 28.8843H8.42383C8.67355 27.3558 9.34487 25.939 10.3809 24.7554C9.99257 23.6808 9.7793 22.5214 9.7793 21.313C9.7795 15.7699 14.2379 11.2563 19.7227 11.2563ZM29.1133 24.6108C27.761 28.5394 24.0652 31.3694 19.7227 31.3696C16.4766 31.3696 13.5896 29.7888 11.7744 27.3501C11.2581 28.2136 10.9784 29.193 10.9746 30.2202C10.9719 30.9532 10.3766 31.5464 9.64355 31.5464H6.79492C5.11772 31.5464 3.76767 32.8517 3.76758 34.439C3.76758 36.0263 5.11766 37.3325 6.79492 37.3325H34.583C36.2602 37.3325 37.6113 36.0263 37.6113 34.439C37.6112 32.9589 36.4035 31.6866 34.8486 31.5581C34.1593 31.501 33.629 30.9255 33.6279 30.2339C33.6262 28.8366 33.1016 27.4857 32.1504 26.4302C31.3463 25.5381 30.2854 24.9062 29.1133 24.6108ZM19.7227 13.9185C15.7105 13.9185 12.4406 17.2328 12.4404 21.313C12.4404 25.3933 15.7105 28.7085 19.7227 28.7085C23.7346 28.7082 27.0039 25.3932 27.0039 21.313C27.0037 17.233 23.7346 13.9187 19.7227 13.9185Z" stroke="#FAC800" stroke-width="0.387944"/>
<path d="M19.7227 11.2563C25.2072 11.2566 29.6648 15.77 29.665 21.313C29.665 21.5445 29.6541 21.7742 29.6387 22.0015C31.3679 22.4109 32.9396 23.3307 34.127 24.6479C35.265 25.9106 35.985 27.4678 36.2109 29.1187C37.175 29.3991 38.0521 29.9253 38.75 30.6577C39.731 31.6873 40.2724 33.0306 40.2725 34.439C40.2725 37.5064 37.7156 39.9937 34.583 39.9937H6.79492C3.66228 39.9936 1.10547 37.5064 1.10547 34.439C1.10556 31.3716 3.66234 28.8843 6.79492 28.8843H8.42383C8.67355 27.3558 9.34487 25.939 10.3809 24.7554C9.99257 23.6808 9.7793 22.5214 9.7793 21.313C9.7795 15.7699 14.2379 11.2563 19.7227 11.2563ZM29.1133 24.6108C27.761 28.5394 24.0652 31.3694 19.7227 31.3696C16.4766 31.3696 13.5896 29.7888 11.7744 27.3501C11.2581 28.2136 10.9784 29.193 10.9746 30.2202C10.9719 30.9532 10.3766 31.5464 9.64355 31.5464H6.79492C5.11772 31.5464 3.76767 32.8517 3.76758 34.439C3.76758 36.0263 5.11766 37.3325 6.79492 37.3325H34.583C36.2602 37.3325 37.6113 36.0263 37.6113 34.439C37.6112 32.9589 36.4035 31.6866 34.8486 31.5581C34.1593 31.501 33.629 30.9255 33.6279 30.2339C33.6262 28.8366 33.1016 27.4857 32.1504 26.4302C31.3463 25.5381 30.2854 24.9062 29.1133 24.6108ZM19.7227 13.9185C15.7105 13.9185 12.4406 17.2328 12.4404 21.313C12.4404 25.3933 15.7105 28.7085 19.7227 28.7085C23.7346 28.7082 27.0039 25.3932 27.0039 21.313C27.0037 17.233 23.7346 13.9187 19.7227 13.9185Z" stroke="black" stroke-opacity="0.2" stroke-width="0.387944"/>
</svg>
