<svg width="80" height="17" viewBox="0 0 80 17" fill="none" xmlns="http://www.w3.org/2000/svg">
<path d="M7.06244 3.76053C7.29608 3.04145 8.31337 3.04145 8.54701 3.76053L9.3818 6.32973C9.48629 6.65131 9.78596 6.86904 10.1241 6.86904H12.8255C13.5816 6.86904 13.896 7.83654 13.2843 8.28095L11.0988 9.86881C10.8252 10.0676 10.7108 10.4198 10.8152 10.7414L11.65 13.3106C11.8837 14.0297 11.0607 14.6277 10.449 14.1832L8.26348 12.5954C7.98993 12.3966 7.61952 12.3966 7.34596 12.5954L5.16047 14.1832C4.54879 14.6277 3.72578 14.0297 3.95942 13.3106L4.79421 10.7414C4.89869 10.4198 4.78423 10.0676 4.51068 9.86881L2.32518 8.28095C1.7135 7.83654 2.02786 6.86904 2.78394 6.86904H5.48536C5.82349 6.86904 6.12316 6.65131 6.22765 6.32973L7.06244 3.76053Z" fill="#FAC800"/>
<path d="M23.1611 3.76059C23.3947 3.04151 24.412 3.04152 24.6456 3.76059L25.4804 6.32979C25.5849 6.65137 25.8846 6.8691 26.2227 6.8691H28.9241C29.6802 6.8691 29.9946 7.8366 29.3829 8.28101L27.1974 9.86887C26.9239 10.0676 26.8094 10.4199 26.9139 10.7415L27.7487 13.3107C27.9823 14.0298 27.1593 14.6277 26.5476 14.1833L24.3621 12.5954C24.0886 12.3967 23.7181 12.3967 23.4446 12.5954L21.2591 14.1833C20.6474 14.6277 19.8244 14.0298 20.0581 13.3107L20.8928 10.7415C20.9973 10.4199 20.8829 10.0676 20.6093 9.86887L18.4238 8.28101C17.8121 7.8366 18.1265 6.8691 18.8826 6.8691H21.584C21.9221 6.8691 22.2218 6.65137 22.3263 6.32979L23.1611 3.76059Z" fill="#FAC800"/>
<path d="M39.2558 3.76059C39.4894 3.04151 40.5067 3.04152 40.7404 3.76059L41.5752 6.32979C41.6796 6.65137 41.9793 6.8691 42.3174 6.8691H45.0189C45.7749 6.8691 46.0893 7.8366 45.4776 8.28101L43.2921 9.86887C43.0186 10.0676 42.9041 10.4199 43.0086 10.7415L43.8434 13.3107C44.077 14.0298 43.254 14.6277 42.6423 14.1833L40.4568 12.5954C40.1833 12.3967 39.8129 12.3967 39.5393 12.5954L37.3538 14.1833C36.7421 14.6277 35.9191 14.0298 36.1528 13.3107L36.9876 10.7415C37.0921 10.4199 36.9776 10.0676 36.704 9.86887L34.5185 8.28101C33.9069 7.8366 34.2212 6.8691 34.9773 6.8691H37.6787C38.0168 6.8691 38.3165 6.65137 38.421 6.32979L39.2558 3.76059Z" fill="#FAC800"/>
<path d="M55.3554 3.76059C55.589 3.04151 56.6063 3.04152 56.84 3.76059L57.6748 6.32979C57.7793 6.65137 58.0789 6.8691 58.4171 6.8691H61.1185C61.8746 6.8691 62.1889 7.8366 61.5772 8.28101L59.3917 9.86887C59.1182 10.0676 59.0037 10.4199 59.1082 10.7415L59.943 13.3107C60.1766 14.0298 59.3536 14.6277 58.742 14.1833L56.5565 12.5954C56.2829 12.3967 55.9125 12.3967 55.6389 12.5954L53.4534 14.1833C52.8418 14.6277 52.0187 14.0298 52.2524 13.3107L53.0872 10.7415C53.1917 10.4199 53.0772 10.0676 52.8036 9.86887L50.6181 8.28101C50.0065 7.8366 50.3208 6.8691 51.0769 6.8691H53.7783C54.1165 6.8691 54.4161 6.65137 54.5206 6.32979L55.3554 3.76059Z" fill="#FAC800"/>
<path d="M71.4531 3.76059C71.6867 3.04151 72.704 3.04152 72.9376 3.76059L73.7724 6.32979C73.8769 6.65137 74.1766 6.8691 74.5147 6.8691H77.2161C77.9722 6.8691 78.2866 7.8366 77.6749 8.28101L75.4894 9.86887C75.2158 10.0676 75.1014 10.4199 75.2059 10.7415L76.0407 13.3107C76.2743 14.0298 75.4513 14.6277 74.8396 14.1833L72.6541 12.5954C72.3806 12.3967 72.0101 12.3967 71.7366 12.5954L69.5511 14.1833C68.9394 14.6277 68.1164 14.0298 68.35 13.3107L69.1848 10.7415C69.2893 10.4199 69.1749 10.0676 68.9013 9.86887L66.7158 8.28101C66.1041 7.8366 66.4185 6.8691 67.1746 6.8691H69.876C70.2141 6.8691 70.5138 6.65137 70.6183 6.32979L71.4531 3.76059Z" fill="#FAC800"/>
</svg>
